# xmcd
#
# Track frame offsets: 
#        150
#        11754
#        23939
#        37197
#        51093
#        63113
#        77002
#        90102
#        102357
#        112407
#        124611
#        143420
#        151877
#        166843
#        177752
#        187378
#        201276
#        210716
#        224513
#        238898
#        249701
#        260547
#        269425
#        278677
#        290169
#        302803
#        313434
#        323814
#
# Disc length: 4458 seconds
#
# Revision: 0
# Processed by: cddbd v1.5.2PL0 Copyright (c) Steve Scherf et al.
# Submitted via: ExactAudioCopy v0.99pb4
#
DISCID=aa11681c
DTITLE=Clyde McPhatter - Please Give Me One More Chance (2013)
DYEAR=1968
DGENRE=Soul
TTITLE0=Only A Fool
TTITLE1=Thank You Love
TTITLE2=Baby You've Got It
TTITLE3=Baby I Could Be So Good At Loving You
TTITLE4=I Hear A Symphony
TTITLE5=Denver
TTITLE6=Tell Me
TTITLE7=I'll Belong To You
TTITLE8=Why Can't We Get Together
TTITLE9=Anyone Can Tell
TTITLE10=Book Of Memories
TTITLE11=Please Give Me One More Chance
TTITLE12=If You Only Knew
TTITLE13=The Mixed Up Cup
TTITLE14=Our Day Will Come
TTITLE15=Someone To Believe In
TTITLE16=My Heartache
TTITLE17=The Ties That Bind
TTITLE18=A Mother's Love
TTITLE19=Baby You Been Good
TTITLE20=I've Lost Again
TTITLE21=Walking Back To Baltimore
TTITLE22=Just A Little Too Late
TTITLE23=Lonely People Do Foolish Things
TTITLE24=Deep In The Heart Of Harlem
TTITLE25=Soul
TTITLE26=Everybody's Got A Song But Me
TTITLE27=I Wanna Know
EXTD=
EXTT0=
EXTT1=
EXTT2=
EXTT3=
EXTT4=
EXTT5=
EXTT6=
EXTT7=
EXTT8=
EXTT9=
EXTT10=
EXTT11=
EXTT12=
EXTT13=
EXTT14=
EXTT15=
EXTT16=
EXTT17=
EXTT18=
EXTT19=
EXTT20=
EXTT21=
EXTT22=
EXTT23=
EXTT24=
EXTT25=
EXTT26=
EXTT27=
PLAYORDER=
